<?xml version="1.0" encoding="UTF-8" standalone="no"?>
<svg
   xmlns:dc="http://purl.org/dc/elements/1.1/"
   xmlns:cc="http://creativecommons.org/ns#"
   xmlns:rdf="http://www.w3.org/1999/02/22-rdf-syntax-ns#"
   xmlns:svg="http://www.w3.org/2000/svg"
   xmlns="http://www.w3.org/2000/svg"
   xmlns:sodipodi="http://sodipodi.sourceforge.net/DTD/sodipodi-0.dtd"
   xmlns:inkscape="http://www.inkscape.org/namespaces/inkscape"
   version="1.0"
   width="99.000000pt"
   height="104.000000pt"
   viewBox="0 0 99.000000 104.000000"
   preserveAspectRatio="xMidYMid meet"
   id="svg3035"
   inkscape:version="0.48.4 r9939"
   sodipodi:docname="logo.svg">
  <defs
     id="defs3045" />
  <sodipodi:namedview
     pagecolor="#ffffff"
     bordercolor="#666666"
     borderopacity="1"
     objecttolerance="10"
     gridtolerance="10"
     guidetolerance="10"
     inkscape:pageopacity="0"
     inkscape:pageshadow="2"
     inkscape:window-width="800"
     inkscape:window-height="544"
     id="namedview3043"
     showgrid="false"
     inkscape:zoom="2.8076923"
     inkscape:cx="115.14702"
     inkscape:cy="65.821917"
     inkscape:window-x="0"
     inkscape:window-y="24"
     inkscape:window-maximized="1"
     inkscape:current-layer="g3039" />
  <metadata
     id="metadata3037">
Created by potrace 1.12, written by Peter Selinger 2001-2015
<rdf:RDF>
  <cc:Work
     rdf:about="">
    <dc:format>image/svg+xml</dc:format>
    <dc:type
       rdf:resource="http://purl.org/dc/dcmitype/StillImage" />
  </cc:Work>
</rdf:RDF>
</metadata>
  <g
     transform="matrix(0.07064342,0,0,-0.07233675,7.260274e-7,93.180903)"
     id="g3039"
     style="fill:#000000;stroke:none">
    <path
       d="M 106.67978,995.99938 75.169625,967.7546 74.381875,937.00709 c -0.262581,-16.80385 0,-30.74749 0.525169,-30.74749 0.78775,0 16.280246,12.87104 34.398596,28.60233 18.11835,15.73127 33.61084,28.60232 34.13601,28.60232 3.15102,0 22.3197,-19.30657 22.3197,-22.1668 0,-2.14518 -7.87754,-21.09421 -17.59317,-42.54595 -14.96733,-32.53514 -18.64352,-38.97067 -23.10746,-37.54055 -2.88843,1.07259 -18.64351,2.14518 -34.66118,2.14518 l -29.672073,0 0,46.83629 c 0,25.7421 -1.050338,46.12124 -2.100682,45.40619 -1.312924,-0.35753 -10.240804,-7.50812 -19.693851,-15.37374 l -17.593176,-14.30117 0,-31.10502 0,-31.46255 -7.877542,0 c -4.4639396,0 -7.8775409,-1.07259 -7.8775409,-2.50271 0,-1.78763 3.6761865,-11.44092 7.8775409,-22.1668 7.352372,-17.87644 7.877542,-22.16679 7.877542,-55.41699 l 0,-36.46796 35.974103,-26.09961 35.711528,-26.45715 19.431271,13.94363 c 22.3197,16.44633 23.89521,12.87105 -19.431271,45.40618 l -29.409489,22.1668 -0.262589,17.1614 0,16.80385 38.337379,0 c 22.84485,0 37.54961,-1.4301 36.49927,-3.21775 -0.78775,-2.14518 4.46394,-17.16139 11.81632,-33.96526 7.35236,-16.80386 13.91698,-32.89267 14.70473,-35.7529 1.05034,-3.57529 -6.56462,-11.79846 -24.94554,-27.17221 -14.70475,-12.15597 -27.04623,-23.23939 -27.5714,-24.66949 -1.31292,-2.86024 30.45983,-28.95985 35.18635,-28.95985 1.57551,0 11.02857,6.43552 21.26937,14.30116 20.74419,15.73127 22.84486,16.80386 24.94554,8.93822 2.62586,-8.93822 5.51429,-6.43552 16.54284,13.58611 6.03945,10.72586 19.69386,27.52972 32.82309,40.04323 l 22.58229,21.45176 0,50.05405 0,50.05407 -18.11835,13.58609 c -9.97822,7.15058 -18.64352,13.22858 -19.43127,13.22858 -0.78776,0 -2.10067,-24.31198 -3.15102,-53.62935 l -2.10068,-53.98688 -7.61495,-5.36294 c -4.20136,-3.21776 -9.45305,-4.64787 -11.29114,-3.93282 -4.46394,2.5027 -38.59996,82.5892 -35.44894,84.01931 1.31292,0.71507 8.6653,15.37376 16.01767,32.17762 7.61495,17.1614 14.70475,32.89267 16.01766,35.39537 1.8381,3.21775 10.24081,-1.07259 32.03534,-16.80387 16.28025,-11.79845 30.45982,-21.45173 31.24758,-21.45173 1.05034,0 1.8381,12.87104 1.8381,28.24479 l 0,28.60232 -19.69386,14.65869 c -22.3197,16.80385 -23.63262,18.59151 -19.95643,28.24479 2.36326,5.72046 1.57551,6.79304 -5.51429,8.93823 -4.46394,1.07258 -12.34147,2.14517 -17.85576,2.14517 -6.30202,0 -18.9061,6.07799 -36.49927,17.87652 -14.70476,10.0108 -27.04623,17.8764 -27.30881,17.8764 -0.26259,-0.3576 -14.70474,-12.871 -32.03535,-28.24482 z"
       id="path3041"
       inkscape:connector-curvature="0"
       style="fill:#e20000;fill-opacity:1" />
    <text
       xml:space="preserve"
       style="font-size:89.52918243px;font-style:normal;font-variant:normal;font-weight:normal;font-stretch:normal;line-height:125%;letter-spacing:0px;word-spacing:0px;fill:#bd0000;fill-opacity:1;stroke:none;font-family:Ubuntu;-inkscape-font-specification:Ubuntu"
       x="287.59726"
       y="-895.40833"
       id="text3815"
       sodipodi:linespacing="125%"
       transform="scale(1.0119141,-0.98822618)"><tspan
         sodipodi:role="line"
         id="tspan3817"
         x="287.59726"
         y="-895.40833"
         style="font-size:89.52918243px;font-style:normal;font-variant:normal;font-weight:normal;font-stretch:normal;fill:#bd0000;fill-opacity:1;font-family:Ubuntu;-inkscape-font-specification:Ubuntu">PT. TRESNAMUDA SEJATI</tspan></text>
    <text
       xml:space="preserve"
       style="font-size:44.76459122px;font-style:normal;font-variant:normal;font-weight:normal;font-stretch:normal;line-height:125%;letter-spacing:0px;word-spacing:0px;fill:#000000;fill-opacity:1;stroke:none;font-family:Ubuntu;-inkscape-font-specification:Ubuntu"
       x="421.58438"
       y="-831.94055"
       id="text3819"
       sodipodi:linespacing="125%"
       transform="scale(1.0119141,-0.98822618)"><tspan
         sodipodi:role="line"
         id="tspan3821"
         x="421.58438"
         y="-831.94055"
         style="font-size:44.76459122px;font-style:normal;font-variant:normal;font-weight:normal;font-stretch:normal;font-family:Ubuntu;-inkscape-font-specification:Ubuntu">SHIP OWNER - OPERATOR - AGENCY</tspan></text>
  </g>
</svg>
